<svg xmlns="http://www.w3.org/2000/svg" viewBox="0 0 1024 1024" fill="none">
  <defs>
    <linearGradient id="brand-b" x1="0%" y1="0%" x2="100%" y2="100%">
      <stop offset="0%" stop-color="#8B5CF6"/>
      <stop offset="100%" stop-color="#EC4899"/>
    </linearGradient>
    <radialGradient id="bg-b" cx="50%" cy="45%" r="55%">
      <stop offset="0%" stop-color="#1E1535"/>
      <stop offset="100%" stop-color="#0A0614"/>
    </radialGradient>
  </defs>
  <!-- Background -->
  <rect width="1024" height="1024" rx="224" fill="url(#bg-b)"/>
  <!-- Chat bubble shape -->
  <path d="M240 340 C240 260, 310 200, 400 200 L624 200 C714 200, 784 260, 784 340 L784 520 C784 600, 714 660, 624 660 L480 660 L380 760 L380 660 L400 660 C310 660, 240 600, 240 520 Z"
        fill="url(#brand-b)" opacity="0.15"/>
  <path d="M240 340 C240 260, 310 200, 400 200 L624 200 C714 200, 784 260, 784 340 L784 520 C784 600, 714 660, 624 660 L480 660 L380 760 L380 660 L400 660 C310 660, 240 600, 240 520 Z"
        stroke="url(#brand-b)" stroke-width="6" fill="none"/>
  <!-- Checkmark inside bubble — "choose" -->
  <path d="M410 430 L480 500 L620 360"
        stroke="url(#brand-b)" stroke-width="56" stroke-linecap="round" stroke-linejoin="round" fill="none"/>
</svg>
